Coordinates
version=1
nRows=5
nColumns=40
inDegrees=yes

Units are S.I. units (second, meters, Newtons, ...)
Angles are in degrees.

endheader
time	pelvis_tilt	pelvis_list	pelvis_rotation	pelvis_tx	pelvis_ty	pelvis_tz	hip_flexion_r	hip_adduction_r	hip_rotation_r	knee_angle_r	knee_angle_r_beta	ankle_angle_r	subtalar_angle_r	mtp_angle_r	hip_flexion_l	hip_adduction_l	hip_rotation_l	knee_angle_l	knee_angle_l_beta	ankle_angle_l	subtalar_angle_l	mtp_angle_l	lumbar_extension	lumbar_bending	lumbar_rotation	arm_flex_r	arm_add_r	arm_rot_r	elbow_flex_r	pro_sup_r	wrist_flex_r	wrist_dev_r	arm_flex_l	arm_add_l	arm_rot_l	elbow_flex_l	pro_sup_l	wrist_flex_l	wrist_dev_l
      0.90000000	     -2.44856783	     -0.98501587	      1.17906570	     -0.75129931	      0.88495062	     -1.38154815	     -2.36417300	      2.68217057	    -12.34786197	    -21.16415544	     -0.36938420	     15.33922185	      2.63068490	     -5.19287391	     32.75737695	      5.59454659	     14.13114177	    -24.83845568	     -0.43351283	      6.04863190	      6.58721509	      9.26611533	     -2.63558498	     -0.30473063	      0.03182911	      0.86294442	    -10.26575882	     -7.19789648	     44.25805007	     89.95437384	      0.00000000	      0.00000000	     -8.29669847	      7.16170406	     20.62657536	     22.60738388	     89.95437384	      0.00000000	      0.00000000
      0.91000000	     -2.63754799	     -1.01204173	      0.87000004	     -0.74439627	      0.88432478	     -1.38259911	     -2.56321676	      2.57137300	    -11.97306974	    -21.32117684	     -0.37212474	     15.39039217	      2.79778999	     -5.24884741	     32.74902495	      5.54758052	     13.99903483	    -24.53561647	     -0.42822729	      6.19096676	      6.13842125	      9.00570952	     -2.37911310	     -0.27488587	      0.29069187	      0.84236603	    -10.25540177	     -7.12834209	     44.11737578	     89.95437384	      0.00000000	      0.00000000	     -8.19217302	      7.08104893	     20.66263479	     22.24304601	     89.95437384	      0.00000000	      0.00000000
      0.92000000	     -2.77408753	     -1.03113448	      0.57372856	     -0.73738291	      0.88364829	     -1.38363857	     -2.76575741	      2.44057062	    -11.62128427	    -21.58499903	     -0.37672930	     15.38304361	      2.87878682	     -5.28727849	     32.72163701	      5.52656509	     13.95049117	    -24.52856415	     -0.42810421	      6.15770562	      5.93162309	      8.76594339	     -2.18648668	     -0.26161297	      0.48400126	      0.82578174	    -10.23927195	     -7.12992050	     44.07932840	     89.95437384	      0.00000000	      0.00000000	     -8.21761787	      7.03396292	     20.74865131	     22.15015518	     89.95437384	      0.00000000	      0.00000000
      0.93000000	     -2.93955114	     -1.03632806	      0.39229923	     -0.73025076	      0.88284639	     -1.38486740	     -2.88309085	      2.26963507	    -11.44046059	    -21.99004670	     -0.38379872	     15.07069178	      2.80043081	     -5.20510891	     32.78487866	      5.43083334	     13.71283038	    -24.75553363	     -0.43206557	      5.98283435	      5.76337468	      8.57705585	     -1.97890918	     -0.27775487	      0.53702272	      0.70263041	    -10.19686974	     -7.08916949	     44.21706284	     89.95437384	      0.00000000	      0.00000000	     -8.39804020	      7.01637245	     20.70288676	     22.36977817	     89.95437384	      0.00000000	      0.00000000
      0.94000000	     -2.94536012	     -1.03307680	     -0.13577530	     -0.72297925	      0.88244801	     -1.38569802	     -3.16727849	      2.10786846	    -10.75472217	    -22.37157677	     -0.39045767	     15.18547139	      3.03690791	     -5.36098493	     32.44502292	      5.47663829	     13.69289954	    -24.87525319	     -0.43415507	      6.19896731	      5.85860765	      8.24088502	     -1.93854992	     -0.29025006	      0.98055183	      0.71426497	    -10.15080774	     -7.16508826	     44.13612768	     89.95437384	      0.00000000	      0.00000000	     -8.26400054	      6.92375023	     21.05133222	     22.11590393	     89.95437384	      0.00000000	      0.00000000
